<?xml version="1.0" standalone="no"?>
<!DOCTYPE svg PUBLIC "-//W3C//DTD SVG 20010904//EN"
 "http://www.w3.org/TR/2001/REC-SVG-20010904/DTD/svg10.dtd">
<svg version="1.0" xmlns="http://www.w3.org/2000/svg"
 width="50px" height="50px" viewBox="0 0 300.000000 281.000000"
 preserveAspectRatio="xMidYMid meet">
<metadata>
Created by potrace 1.10, written by Peter Selinger 2001-2011
</metadata>
<g transform="translate(0.000000,281.000000) scale(0.050000,-0.050000)"
fill="#000000" stroke="none">
<path d="M2670 5318 c-1245 -180 -2189 -1330 -2122 -2588 114 -2164 2731
-3172 4262 -1640 1693 1692 236 4570 -2140 4228z m804 -170 c1862 -330 2566
-2672 1197 -3985 -1530 -1467 -4050 -327 -3966 1795 57 1415 1353 2441 2769
2190z"/>
<path d="M2740 5147 c-1908 -301 -2689 -2568 -1351 -3918 1312 -1322 3559
-655 3930 1168 312 1527 -1060 2989 -2579 2750z m671 -57 c1839 -298 2556
-2583 1216 -3871 -1186 -1139 -3143 -698 -3719 839 -608 1621 787 3311 2503
3032z"/>
<path d="M2739 5079 c-1690 -237 -2520 -2205 -1504 -3570 1067 -1434 3314
-1107 3926 572 576 1577 -761 3231 -2422 2998z m-197 -1334 c13 -35 18 -231
13 -545 -4 -269 -1 -661 6 -870 16 -435 18 -430 -132 -430 -123 0 -126 3 -172
180 -18 72 -85 328 -148 570 -63 242 -124 483 -136 535 -30 136 -58 117 -45
-30 6 -69 14 -377 17 -685 l5 -560 -90 -13 c-57 -8 -99 -4 -114 10 -24 23 -66
1182 -59 1633 l3 210 140 12 c183 16 182 17 219 -139 17 -73 84 -335 149 -583
l119 -450 2 592 c0 325 7 597 14 605 42 41 188 12 209 -42z m1873 4 c17 -5 23
-39 19 -103 l-6 -96 -194 -6 -194 -5 0 -294 c0 -228 5 -288 24 -269 34 34 245
31 275 -5 13 -15 21 -67 17 -115 l-6 -86 -155 -6 -155 -6 0 -309 0 -309 171 0
c220 0 249 -15 249 -130 0 -112 14 -106 -314 -122 -407 -19 -362 -119 -367
827 -2 437 -6 847 -8 911 -4 88 2 120 27 135 29 18 555 8 617 -12z m-1081 -10
c206 -78 228 -177 228 -1019 0 -643 -15 -703 -202 -787 -94 -42 -524 -57 -562
-19 -13 13 -25 1225 -19 1781 l1 65 249 0 c136 0 274 -10 305 -21z"/>
<path d="M3038 3515 c-2 -26 -1 -1190 1 -1323 l1 -77 92 10 c178 20 174 5 171
692 -3 629 -11 690 -90 711 -76 20 -173 13 -175 -13z"/>
</g>
</svg>
